<?xml version="1.0" encoding="UTF-8"?>
<svg version="1.1" xmlns="http://www.w3.org/2000/svg" width="240" height="240">
<path d="M0 0 C0.76663316 -0.00226556 1.53326632 -0.00453111 2.32313079 -0.00686532 C4.87613659 -0.01316414 7.42908875 -0.01237862 9.98210144 -0.0115509 C11.81910266 -0.01454496 13.65610326 -0.01794806 15.49310303 -0.02172852 C20.47254336 -0.03054752 25.4519665 -0.03290575 30.43141389 -0.0335443 C33.54536953 -0.03425599 36.65932082 -0.03639256 39.77327538 -0.03904152 C50.64529573 -0.04828795 61.51730384 -0.05237728 72.389328 -0.05158997 C82.51001672 -0.05098934 92.63065211 -0.06153996 102.75132734 -0.07733363 C111.45219225 -0.09042588 120.15303976 -0.09577315 128.85391444 -0.09513456 C134.04533717 -0.09488007 139.23671249 -0.09770417 144.42812538 -0.10831261 C149.312716 -0.11802196 154.19721414 -0.11805334 159.08180809 -0.11079597 C160.86916616 -0.10975366 162.65653008 -0.11209193 164.44387817 -0.11815643 C189.89612908 -0.19888729 189.89612908 -0.19888729 199.08830261 8.13371277 C203.27513646 13.36725507 206.20415121 17.72272408 206.24220276 24.47001648 C206.25080322 25.60263916 206.25940369 26.73526184 206.26826477 27.90220642 C206.27465469 29.77540558 206.27465469 29.77540558 206.28117371 31.68644714 C206.29343994 33.65251923 206.29343994 33.65251923 206.30595398 35.65830994 C206.33219013 40.01467326 206.34749014 44.37104622 206.36174011 48.72746277 C206.36710046 50.22858689 206.37247797 51.72971096 206.37787247 53.23083496 C206.39950973 59.47936419 206.41824269 65.72789083 206.42949486 71.97644806 C206.44570672 80.91992301 206.4788069 89.86296157 206.53589571 98.80627203 C206.57469002 105.09941016 206.59413913 111.39243208 206.59941542 117.68568659 C206.60305797 121.44095521 206.61495968 125.19575858 206.64751816 128.95089722 C206.67776427 132.49035383 206.68385282 136.02906785 206.6721344 139.5686264 C206.6718111 141.47281891 206.69617028 143.3769667 206.72151184 145.2809906 C206.65188416 154.95013459 204.24543921 161.88084651 197.71330261 169.07121277 C190.40918589 175.79036776 181.6826352 176.2883276 172.17660522 176.26742554 C171.40997207 176.26969109 170.64333891 176.27195665 169.85347444 176.27429086 C167.30046863 176.28058967 164.74751647 176.27980416 162.19450378 176.27897644 C160.35750256 176.2819705 158.52050197 176.2853736 156.6835022 176.28915405 C151.70406186 176.29797306 146.72463872 176.30033128 141.74519134 176.30096984 C138.6312357 176.30168153 135.51728441 176.3038181 132.40332985 176.30646706 C121.53130949 176.31571349 110.65930138 176.31980282 99.78727722 176.3190155 C89.6665885 176.31841488 79.54595311 176.3289655 69.42527789 176.34475917 C60.72441298 176.35785141 52.02356546 176.36319869 43.32269078 176.36256009 C38.13126805 176.3623056 32.93989273 176.3651297 27.74847984 176.37573814 C22.86388923 176.38544749 17.97939108 176.38547888 13.09479713 176.37822151 C11.30743906 176.3771792 9.52007514 176.37951747 7.73272705 176.38558197 C-17.51078406 176.46565073 -17.51078406 176.46565073 -25.72419739 168.34074402 C-33.50363638 159.96163994 -34.35983073 153.18699727 -34.3474884 142.01335144 C-34.35756424 140.70190659 -34.36764008 139.39046173 -34.37802124 138.03927612 C-34.40441878 134.45644639 -34.41155035 130.87383189 -34.4134686 127.2909143 C-34.41560716 125.0479885 -34.42202339 122.8051167 -34.42996025 120.56220436 C-34.45768039 112.72459591 -34.46997004 104.8871401 -34.46760559 97.04948425 C-34.46580441 89.76418101 -34.4974459 82.47954499 -34.54483658 75.1944105 C-34.5841709 68.92237114 -34.6001528 62.65054891 -34.59823936 56.37838727 C-34.59747751 52.63991977 -34.60585651 48.90204572 -34.63777351 45.16370201 C-34.67244242 40.98942946 -34.6585123 36.81663535 -34.64045715 32.64225769 C-34.65731567 31.41750732 -34.67417419 30.19275696 -34.69154358 28.93089294 C-34.6039097 20.93629138 -33.03133155 15.38083799 -27.91169739 9.13371277 C-19.54391786 1.42700989 -11.1985761 -0.02462367 0 0 Z " fill="#2397ED" transform="translate(33.91169738769531,31.866287231445313)"/>
<path d="M0 0 C79.2 0 158.4 0 240 0 C240 12.14059938 239.4986898 18.42396182 231.625 26.9375 C224.32088328 33.65665499 215.59433259 34.15461483 206.08830261 34.13371277 C205.32166945 34.13597833 204.55503629 34.13824388 203.76517183 34.14057809 C201.21216602 34.1468769 198.65921386 34.14609139 196.10620117 34.14526367 C194.26919995 34.14825773 192.43219936 34.15166083 190.59519958 34.15544128 C185.61575925 34.16426029 180.63633611 34.16661851 175.65688872 34.16725707 C172.54293309 34.16796876 169.42898179 34.17010533 166.31502724 34.17275429 C155.44300688 34.18200072 144.57099877 34.18609005 133.69897461 34.18530273 C123.57828589 34.18470211 113.4576505 34.19525273 103.33697528 34.2110464 C94.63611037 34.22413865 85.93526285 34.22948592 77.23438817 34.22884732 C72.04296544 34.22859284 66.85159012 34.23141693 61.66017723 34.24202538 C56.77558662 34.25173473 51.89108847 34.25176611 47.00649452 34.24450874 C45.21913645 34.24346643 43.43177253 34.2458047 41.64442444 34.2518692 C16.40091332 34.33193796 16.40091332 34.33193796 8.1875 26.20703125 C0.08627655 17.48133849 0 12.73056267 0 0 Z " fill="#179514" transform="translate(0,174)"/>
<path d="M0 0 C8.27254038 5.92886508 14.59199408 13.57911736 16.55078125 23.828125 C17.50989299 35.37435478 14.90055095 44.81817203 7.55078125 53.828125 C1.4765136 60.3685235 -6.67527482 64.38950659 -15.5859375 65.06640625 C-27.08342037 65.30672767 -34.93872635 62.63838701 -43.44921875 54.828125 C-50.8910149 46.56133334 -53.83883862 37.8153311 -53.734375 26.7421875 C-52.72135988 16.39000557 -46.57684969 8.17812234 -38.83984375 1.6640625 C-27.780168 -6.82947933 -11.95444443 -7.07676655 0 0 Z " fill="#ECEDEE" transform="translate(138.44921875,68.171875)"/>
<path d="M0 0 C79.2 0 158.4 0 240 0 C240 3.63 240 7.26 240 11 C160.8 11 81.6 11 0 11 C0 7.37 0 3.74 0 0 Z " fill="#ED391B" transform="translate(0,174)"/>
<path d="M0 0 C79.2 0 158.4 0 240 0 C240 3.3 240 6.6 240 10 C160.8 10 81.6 10 0 10 C0 6.7 0 3.4 0 0 Z " fill="#EEEEEE" transform="translate(0,164)"/>
</svg>
