<?xml version="1.0" encoding="UTF-8"?>
<svg xmlns="http://www.w3.org/2000/svg" xmlns:xlink="http://www.w3.org/1999/xlink" viewBox="0 0 79.36 78.91">
  <defs>
    <style>
      .cls-1 {
        fill: #3f3f3f;
      }

      .cls-2 {
        fill: #009eff;
      }

      .cls-3 {
        fill: url(#_gradient_40);
      }

      .cls-4 {
        fill: url(#_gradient_60);
      }

      .cls-5 {
        fill: url(#_gradient_40-2);
      }

      .cls-6 {
        fill: url(#_gradient_60-3);
      }

      .cls-7 {
        fill: url(#_gradient_60-2);
      }

      .cls-8 {
        fill: url(#_gradient_40-3);
      }

      .cls-9 {
        fill: url(#_gradient_54);
      }

      .cls-10 {
        fill: url(#_gradient_47-2);
      }

      .cls-11 {
        fill: url(#_gradient_47);
      }

      .cls-12 {
        fill: url(#_gradient_54-3);
      }

      .cls-13 {
        fill: url(#_gradient_54-2);
      }

      .cls-14 {
        fill: url(#_gradient_47-3);
      }
    </style>
    <linearGradient id="_gradient_47" data-name="gradient 47" x1="50.76" y1="78.91" x2="50.76" y2="40.79" gradientUnits="userSpaceOnUse">
      <stop offset="0" stop-color="#2b2729"/>
      <stop offset="1" stop-color="#333032"/>
    </linearGradient>
    <linearGradient id="_gradient_54" data-name="gradient 54" x1="41.23" y1="50.32" x2="79.36" y2="50.32" gradientUnits="userSpaceOnUse">
      <stop offset="0" stop-color="#333032"/>
      <stop offset="1" stop-color="#3a383a"/>
    </linearGradient>
    <linearGradient id="_gradient_60" data-name="gradient 60" x1="69.82" y1="40.79" x2="69.82" y2="78.91" gradientUnits="userSpaceOnUse">
      <stop offset="0" stop-color="#3a383a"/>
      <stop offset="1" stop-color="#414042"/>
    </linearGradient>
    <linearGradient id="_gradient_40" data-name="gradient 40" x1="79.36" y1="69.38" x2="41.23" y2="69.38" gradientUnits="userSpaceOnUse">
      <stop offset="0" stop-color="#231f20"/>
      <stop offset="1" stop-color="#2b2729"/>
    </linearGradient>
    <linearGradient id="_gradient_47-2" data-name="gradient 47" x1="9.53" x2="9.53" xlink:href="#_gradient_47"/>
    <linearGradient id="_gradient_54-2" data-name="gradient 54" x1="0" x2="38.13" xlink:href="#_gradient_54"/>
    <linearGradient id="_gradient_60-2" data-name="gradient 60" x1="28.59" x2="28.59" xlink:href="#_gradient_60"/>
    <linearGradient id="_gradient_40-2" data-name="gradient 40" x1="38.13" x2="0" xlink:href="#_gradient_40"/>
    <linearGradient id="_gradient_47-3" data-name="gradient 47" x1="9.53" y1="38.13" x2="9.53" y2="0" xlink:href="#_gradient_47"/>
    <linearGradient id="_gradient_54-3" data-name="gradient 54" x1="0" y1="9.53" x2="38.12" y2="9.53" xlink:href="#_gradient_54"/>
    <linearGradient id="_gradient_60-3" data-name="gradient 60" x1="28.59" y1="0" x2="28.59" y2="38.13" xlink:href="#_gradient_60"/>
    <linearGradient id="_gradient_40-3" data-name="gradient 40" x1="38.12" y1="28.59" x2="0" y2="28.59" xlink:href="#_gradient_40"/>
  </defs>
  <g id="Key_Backs" data-name="Key Backs">
    <g>
      <polygon class="cls-11" points="41.23 40.79 60.29 59.85 41.23 78.91 41.23 40.79"/>
      <polygon class="cls-9" points="41.23 40.79 79.36 40.79 60.29 59.85 41.23 40.79"/>
      <polygon class="cls-4" points="79.36 78.91 60.29 59.86 79.36 40.79 79.36 78.91"/>
      <polygon class="cls-3" points="41.23 78.91 60.29 59.85 79.36 78.91 41.23 78.91"/>
      <rect class="cls-1" x="46.38" y="45.93" width="27.83" height="27.83"/>
    </g>
    <g>
      <polygon class="cls-10" points="0 40.79 19.06 59.85 0 78.91 0 40.79"/>
      <polygon class="cls-13" points="0 40.79 38.13 40.79 19.06 59.85 0 40.79"/>
      <polygon class="cls-7" points="38.13 78.91 19.06 59.86 38.13 40.79 38.13 78.91"/>
      <polygon class="cls-5" points="0 78.91 19.06 59.85 38.13 78.91 0 78.91"/>
      <rect class="cls-1" x="5.15" y="45.93" width="27.83" height="27.83"/>
    </g>
    <g>
      <polygon class="cls-14" points="0 0 19.06 19.06 0 38.13 0 0"/>
      <polygon class="cls-12" points="0 0 38.12 0 19.06 19.06 0 0"/>
      <polygon class="cls-6" points="38.12 38.13 19.05 19.07 38.12 0 38.12 38.13"/>
      <polygon class="cls-8" points="0 38.13 19.06 19.06 38.12 38.13 0 38.13"/>
      <rect class="cls-1" x="5.14" y="5.15" width="27.83" height="27.83"/>
    </g>
  </g>
  <g id="Key_Markings" data-name="Key Markings">
    <path class="cls-2" d="m65.63,58.8l-2.81.31c-.08-.28-.22-.55-.41-.8s-.46-.45-.79-.6c-.33-.15-.73-.23-1.21-.23-.64,0-1.18.14-1.62.42s-.65.64-.64,1.08c0,.38.13.69.42.93s.76.43,1.43.59l2.23.48c1.24.27,2.16.69,2.77,1.27.61.58.91,1.34.92,2.28,0,.82-.25,1.55-.72,2.18-.47.63-1.13,1.12-1.97,1.47-.84.35-1.81.53-2.9.53-1.6,0-2.89-.34-3.87-1.01s-1.56-1.61-1.75-2.82l3.01-.29c.14.59.43,1.04.87,1.34.44.3,1.02.45,1.73.45s1.32-.15,1.77-.45c.45-.3.67-.67.67-1.12,0-.38-.14-.68-.43-.93-.29-.24-.73-.43-1.33-.56l-2.23-.47c-1.26-.26-2.19-.7-2.79-1.33-.6-.62-.9-1.41-.9-2.36,0-.81.21-1.51.66-2.1.45-.59,1.07-1.05,1.87-1.38.8-.33,1.72-.49,2.77-.49,1.53,0,2.74.33,3.63.98.88.65,1.43,1.54,1.64,2.65Zm-6.94-8.83l1.73,2.18,1.73-2.18h2.7v.12l-3.22,3.68h-2.41l-3.23-3.68v-.12h2.7Z"/>
    <path class="cls-2" d="m13.81,67.55c-.88,0-1.65-.15-2.33-.45s-1.22-.74-1.6-1.33c-.39-.59-.58-1.31-.58-2.17,0-.74.14-1.35.41-1.83.28-.48.65-.87,1.12-1.16.47-.29,1-.51,1.6-.66.59-.15,1.21-.26,1.84-.32.77-.08,1.4-.15,1.87-.22s.82-.17,1.04-.31.33-.35.33-.64v-.05c0-.64-.19-1.14-.57-1.49-.38-.35-.93-.53-1.64-.53s-1.35.16-1.79.49-.74.72-.89,1.17l-2.88-.41c.23-.8.6-1.46,1.12-2,.52-.54,1.16-.94,1.92-1.21s1.61-.4,2.54-.4c.39,0,.79.04,1.2.11.41.07.81.19,1.2.37.39.18.74.42,1.05.73s.55.71.72,1.2l-.54,8.62h-.21c-.21.49-.56.92-1.05,1.3s-1.07.67-1.74.88c-.67.21-1.38.32-2.13.32Zm.67-2.27c.62,0,1.16-.12,1.61-.37.46-.25.81-.58,1.05-.98s.37-.85.37-1.34v-1.54c-.1.08-.26.15-.49.22s-.49.13-.77.18c-.28.05-.57.1-.84.14s-.52.07-.72.1c-.46.06-.87.17-1.24.31-.36.14-.65.34-.86.59-.21.25-.32.58-.32.98,0,.57.21,1,.62,1.29.41.29.94.43,1.58.43Zm9.17,2.26c-1.29,0-2.4-.29-3.33-.88-.93-.59-1.54-1.4-1.84-2.43l.05-7.3c.5-.96,1.15-1.68,1.96-2.17s1.75-.73,2.85-.73c.8,0,1.56.13,2.28.39.72.26,1.36.66,1.91,1.2.56.54.99,1.23,1.31,2.06.32.83.47,1.82.47,2.97v.95h-10.55v-2.08h7.59c0-.59-.13-1.12-.38-1.58-.25-.46-.6-.83-1.04-1.1s-.96-.4-1.56-.4c-.63,0-1.18.15-1.66.46-.48.3-.85.7-1.11,1.2-.26.49-.4,1.03-.4,1.61v1.82c0,.76.14,1.41.42,1.96s.67.96,1.17,1.24c.5.29,1.08.43,1.76.43.44,0,.85-.06,1.21-.19.37-.13.68-.32.95-.57s.46-.56.6-.93l2.89.32c-.18.76-.53,1.42-1.04,1.99-.51.57-1.15,1-1.92,1.31-.77.31-1.63.46-2.59.46Z"/>
    <path class="cls-2" d="m17.57,11.92h3.53c1.36,0,2.57.29,3.63.88,1.06.58,1.89,1.41,2.49,2.47.6,1.06.9,2.3.9,3.72s-.3,2.6-.9,3.64c-.6,1.04-1.43,1.85-2.49,2.42-1.06.58-2.27.87-3.63.87h-3.53c-1.37,0-2.58-.29-3.64-.86-1.06-.57-1.89-1.38-2.49-2.42-.6-1.04-.9-2.26-.9-3.65s.3-2.66.91-3.72c.61-1.06,1.44-1.88,2.5-2.47,1.06-.59,2.27-.88,3.63-.88Zm0,2.68c-.83,0-1.55.17-2.15.51s-1.07.83-1.4,1.49c-.33.65-.49,1.45-.49,2.4s.17,1.68.5,2.31c.33.63.8,1.11,1.41,1.44s1.32.49,2.14.49h3.54c.82,0,1.54-.17,2.14-.5.6-.33,1.06-.81,1.39-1.45.33-.63.49-1.4.49-2.31s-.16-1.73-.49-2.39c-.33-.65-.79-1.15-1.39-1.49-.6-.34-1.31-.51-2.14-.51h-3.54Zm3.29-4.93v18.48h-3.04V9.67h3.04Z"/>
  </g>
  <g id="Infinity">
    <path class="cls-2" d="m60.29,21.68c-2.65,2.65-5.41,5.57-9.62,5.57s-7.49-3.23-7.49-7.7c0-4.11,3.33-7.7,7.91-7.7,3.85,0,6.71,3.07,9.21,5.56,2.65-2.65,5.41-5.56,9.62-5.56s7.49,3.22,7.49,7.7c0,4.11-3.33,7.7-7.91,7.7-3.85,0-6.71-3.07-9.21-5.57Zm-2.08-2.13c-2.03-1.87-4.16-4.58-7.18-4.58-2.6,0-4.58,2.13-4.58,4.58,0,2.65,1.87,4.58,4.42,4.58,2.96,0,5.36-2.55,7.33-4.58Zm15.92,0c0-2.65-1.87-4.58-4.42-4.58-2.97,0-5.36,2.55-7.34,4.58,2.03,1.87,4.16,4.58,7.18,4.58,2.6,0,4.58-2.13,4.58-4.58Z"/>
  </g>
</svg>